<svg height="694.184" viewBox="0 0 858.477 694.184" width="858.477" xmlns="http://www.w3.org/2000/svg"><path d="m137.109 252.861h241.188v89.855h-241.188z" fill="#c6d1e2"/><path d="m256.836 304.606h58.401" fill="none" stroke="#a3a3a3" stroke-width="12"/><path d="m315.237 304.606-6.4 9.6 25.6-9.6-25.6-9.6z" fill="#a3a3a3" stroke="#a3a3a3" stroke-width="12"/><path d="m546.095 452.425h-65.201" fill="none" stroke="#a3a3a3" stroke-width="8"/><path d="m480.894 452.425 4.8-7.2-19.2 7.2 19.2 7.2z" fill="#a3a3a3" stroke="#a3a3a3" stroke-width="8"/><path d="m211.041 587.809h65.201" fill="none" stroke="#a3a3a3" stroke-width="8"/><path d="m276.242 587.809-4.8 7.2 19.2-7.2-19.2-7.2z" fill="#a3a3a3" stroke="#a3a3a3" stroke-width="8"/><path d="m377.88 252.861h241.188v89.855h-241.188z" fill="#b9dfdf"/><path d="m502.133 301.262h-58.401" fill="none" stroke="#a3a3a3" stroke-width="12"/><path d="m443.732 301.262 6.4-9.601-25.6 9.601 25.6 9.6z" fill="#a3a3a3" stroke="#a3a3a3" stroke-width="12"/><path d="m414.387 595.567c0 4.617-3.742 8.36-8.36 8.36-4.617 0-8.36-3.743-8.36-8.36 0-4.618 3.743-8.361 8.36-8.361 4.618 0 8.36 3.743 8.36 8.361z" fill="#fff"/><path d="m414.387 595.567c0 4.617-3.742 8.36-8.36 8.36-4.617 0-8.36-3.743-8.36-8.36 0-4.618 3.743-8.361 8.36-8.361 4.618 0 8.36 3.743 8.36 8.361z" fill="none" stroke="#000" stroke-width="1.088"/><path d="m416.42 587.799c0 4.617-3.743 8.36-8.36 8.36s-8.36-3.743-8.36-8.36 3.743-8.36 8.36-8.36 8.36 3.743 8.36 8.36z" fill="#de787a"/><path d="m376.292 571.079c0 4.617-3.743 8.36-8.36 8.36-4.618 0-8.36-3.743-8.36-8.36s3.742-8.36 8.36-8.36c4.617 0 8.36 3.743 8.36 8.36z" fill="#de787a"/><path d="m89.5 304.606h46.558" fill="none" stroke="#000" stroke-width="4"/><path d="m619.568 301.262h46.557" fill="none" stroke="#000" stroke-width="4"/><path d="m150.051 121.394h439.478" fill="none" stroke="#000" stroke-width="4"/><path d="m325.283 67.632 92.252 53.262-92.252 53.262z"/><path d="m405.032 73.586v95.617" fill="none" stroke="#000" stroke-width="15"/><path d="m349.264 67.191 30.358-52.583" fill="none" stroke="#000" stroke-width="4"/><path d="m382.571 9.5.007 13.625-11.81-6.819z"/><path d="m382.571 9.5.007 13.625-11.81-6.819z" fill="none" stroke="#000" stroke-width="4"/><path d="m370.961 84.065 30.358-52.582" fill="none" stroke="#000" stroke-width="4"/><path d="m404.268 26.375.007 13.625-11.81-6.819z"/><path d="m404.268 26.375.007 13.625-11.81-6.819z" fill="none" stroke="#000" stroke-width="4"/><g fill="#de787a"><path d="m614.148 316.184c0 4.617-3.743 8.36-8.361 8.36-4.617 0-8.36-3.743-8.36-8.36s3.743-8.36 8.36-8.36c4.618 0 8.361 3.743 8.361 8.36z"/><path d="m582.978 304.106c0 4.617-3.743 8.36-8.36 8.36s-8.36-3.743-8.36-8.36c0-4.618 3.743-8.361 8.36-8.361s8.36 3.743 8.36 8.361z"/><path d="m527.073 299.464c0 4.617-3.743 8.36-8.36 8.36-4.618 0-8.36-3.743-8.36-8.36 0-4.618 3.742-8.361 8.36-8.361 4.617 0 8.36 3.743 8.36 8.361z"/><path d="m493.321 289.057c0 4.618-3.743 8.361-8.36 8.361s-8.36-3.743-8.36-8.361c0-4.617 3.743-8.36 8.36-8.36s8.36 3.743 8.36 8.36z"/><path d="m439.828 296.928c0 4.617-3.743 8.36-8.36 8.36s-8.36-3.743-8.36-8.36 3.743-8.36 8.36-8.36 8.36 3.743 8.36 8.36z"/><path d="m459.893 272.337c0 4.617-3.743 8.36-8.361 8.36-4.617 0-8.36-3.743-8.36-8.36s3.743-8.36 8.36-8.36c4.618 0 8.361 3.743 8.361 8.36z"/><path d="m553.955 272.337c0 4.617-3.743 8.36-8.36 8.36s-8.36-3.743-8.36-8.36 3.743-8.36 8.36-8.36 8.36 3.743 8.36 8.36z"/><path d="m592.605 275.681c0 4.617-3.743 8.36-8.36 8.36s-8.36-3.743-8.36-8.36 3.743-8.36 8.36-8.36 8.36 3.743 8.36 8.36z"/><path d="m463.666 319.154c0 4.617-3.743 8.36-8.36 8.36s-8.36-3.743-8.36-8.36 3.743-8.36 8.36-8.36 8.36 3.743 8.36 8.36z"/><path d="m506.834 320.826c0 4.617-3.743 8.36-8.36 8.36-4.618 0-8.36-3.743-8.36-8.36s3.742-8.36 8.36-8.36c4.617 0 8.36 3.743 8.36 8.36z"/><path d="m553.955 319.154c0 4.617-3.743 8.36-8.36 8.36s-8.36-3.743-8.36-8.36 3.743-8.36 8.36-8.36 8.36 3.743 8.36 8.36z"/></g><path d="m418.532 282.869c0 4.617-3.743 8.36-8.36 8.36s-8.36-3.743-8.36-8.36 3.743-8.36 8.36-8.36 8.36 3.743 8.36 8.36z" fill="#fff"/><path d="m418.532 282.869c0 4.617-3.743 8.36-8.36 8.36s-8.36-3.743-8.36-8.36 3.743-8.36 8.36-8.36 8.36 3.743 8.36 8.36z" fill="none" stroke="#000" stroke-width="1.088"/><path d="m386.753 292.401c0 4.618-3.743 8.361-8.36 8.361s-8.36-3.743-8.36-8.361c0-4.617 3.743-8.36 8.36-8.36s8.36 3.743 8.36 8.36z" fill="#de787a"/><path d="m399.7 316.184c0 4.617-3.743 8.36-8.36 8.36s-8.36-3.743-8.36-8.36c0-4.618 3.743-8.36 8.36-8.36s8.36 3.742 8.36 8.36z" fill="#de787a"/><path d="m356.657 282.369c0 4.617-3.743 8.36-8.36 8.36s-8.36-3.743-8.36-8.36 3.743-8.36 8.36-8.36 8.36 3.743 8.36 8.36z" fill="#de787a"/><path d="m387.635 266.149c0 4.617-3.743 8.36-8.36 8.36s-8.36-3.743-8.36-8.36 3.743-8.36 8.36-8.36 8.36 3.743 8.36 8.36z" fill="#fff"/><path d="m387.635 266.149c0 4.617-3.743 8.36-8.36 8.36s-8.36-3.743-8.36-8.36 3.743-8.36 8.36-8.36 8.36 3.743 8.36 8.36z" fill="none" stroke="#000" stroke-width="1.088"/><path d="m368.93 316.684c0 4.617-3.743 8.36-8.36 8.36s-8.36-3.743-8.36-8.36 3.743-8.36 8.36-8.36 8.36 3.743 8.36 8.36z" fill="#fff"/><path d="m368.93 316.684c0 4.617-3.743 8.36-8.36 8.36s-8.36-3.743-8.36-8.36 3.743-8.36 8.36-8.36 8.36 3.743 8.36 8.36z" fill="none" stroke="#000" stroke-width="1.088"/><path d="m321.555 319.654c0 4.617-3.743 8.36-8.36 8.36s-8.36-3.743-8.36-8.36 3.743-8.36 8.36-8.36 8.36 3.743 8.36 8.36z" fill="#fff"/><path d="m321.555 319.654c0 4.617-3.743 8.36-8.36 8.36s-8.36-3.743-8.36-8.36 3.743-8.36 8.36-8.36 8.36 3.743 8.36 8.36z" fill="none" stroke="#000" stroke-width="1.088"/><path d="m321.555 276.181c0 4.617-3.743 8.36-8.36 8.36s-8.36-3.743-8.36-8.36 3.743-8.36 8.36-8.36 8.36 3.743 8.36 8.36z" fill="#fff"/><path d="m321.555 276.181c0 4.617-3.743 8.36-8.36 8.36s-8.36-3.743-8.36-8.36 3.743-8.36 8.36-8.36 8.36 3.743 8.36 8.36z" fill="none" stroke="#000" stroke-width="1.088"/><path d="m294.002 289.557c0 4.618-3.743 8.36-8.36 8.36s-8.36-3.742-8.36-8.36c0-4.617 3.743-8.36 8.36-8.36s8.36 3.743 8.36 8.36z" fill="#fff"/><path d="m294.002 289.557c0 4.618-3.743 8.36-8.36 8.36s-8.36-3.742-8.36-8.36c0-4.617 3.743-8.36 8.36-8.36s8.36 3.743 8.36 8.36z" fill="none" stroke="#000" stroke-width="1.088"/><path d="m249.932 306.278c0 4.617-3.743 8.36-8.36 8.36-4.618 0-8.361-3.743-8.361-8.36 0-4.618 3.743-8.36 8.361-8.36 4.617 0 8.36 3.742 8.36 8.36z" fill="#fff"/><path d="m249.932 306.278c0 4.617-3.743 8.36-8.36 8.36-4.618 0-8.361-3.743-8.361-8.36 0-4.618 3.743-8.36 8.361-8.36 4.617 0 8.36 3.742 8.36 8.36z" fill="none" stroke="#000" stroke-width="1.088"/><path d="m199.988 299.509c0 4.617-3.743 8.36-8.361 8.36-4.617 0-8.36-3.743-8.36-8.36s3.743-8.36 8.36-8.36c4.618 0 8.361 3.743 8.361 8.36z" fill="#fff"/><path d="m199.988 299.509c0 4.617-3.743 8.36-8.361 8.36-4.617 0-8.36-3.743-8.36-8.36s3.743-8.36 8.36-8.36c4.618 0 8.361 3.743 8.361 8.36z" fill="none" stroke="#000" stroke-width="1.088"/><path d="m166.771 306.278c0 4.617-3.743 8.36-8.36 8.36s-8.36-3.743-8.36-8.36c0-4.618 3.743-8.36 8.36-8.36s8.36 3.742 8.36 8.36z" fill="#fff"/><path d="m166.771 306.278c0 4.617-3.743 8.36-8.36 8.36s-8.36-3.743-8.36-8.36c0-4.618 3.743-8.36 8.36-8.36s8.36 3.742 8.36 8.36z" fill="none" stroke="#000" stroke-width="1.088"/><path d="m269.236 283.243c0 4.618-3.743 8.36-8.36 8.36s-8.36-3.742-8.36-8.36c0-4.617 3.743-8.36 8.36-8.36s8.36 3.743 8.36 8.36z" fill="#fff"/><path d="m269.236 283.243c0 4.618-3.743 8.36-8.36 8.36s-8.36-3.742-8.36-8.36c0-4.617 3.743-8.36 8.36-8.36s8.36 3.743 8.36 8.36z" fill="none" stroke="#000" stroke-width="1.088"/><path d="m227.762 272.837c0 4.617-3.743 8.36-8.36 8.36-4.618 0-8.361-3.743-8.361-8.36s3.743-8.36 8.361-8.36c4.617 0 8.36 3.743 8.36 8.36z" fill="#fff"/><path d="m227.762 272.837c0 4.617-3.743 8.36-8.36 8.36-4.618 0-8.361-3.743-8.361-8.36s3.743-8.36 8.361-8.36c4.617 0 8.36 3.743 8.36 8.36z" fill="none" stroke="#000" stroke-width="1.088"/><path d="m189.762 280.708c0 4.617-3.743 8.36-8.36 8.36-4.618 0-8.361-3.743-8.361-8.36 0-4.618 3.743-8.36 8.361-8.36 4.617 0 8.36 3.742 8.36 8.36z" fill="#fff"/><path d="m189.762 280.708c0 4.617-3.743 8.36-8.36 8.36-4.618 0-8.361-3.743-8.361-8.36 0-4.618 3.743-8.36 8.361-8.36 4.617 0 8.36 3.742 8.36 8.36z" fill="none" stroke="#000" stroke-width="1.088"/><path d="m328.243 321.326c0 4.617-3.743 8.36-8.36 8.36s-8.36-3.743-8.36-8.36 3.743-8.36 8.36-8.36 8.36 3.743 8.36 8.36z" fill="#fff"/><path d="m328.243 321.326c0 4.617-3.743 8.36-8.36 8.36s-8.36-3.743-8.36-8.36 3.743-8.36 8.36-8.36 8.36 3.743 8.36 8.36z" fill="none" stroke="#000" stroke-width="1.088"/><path d="m224.578 322.998c0 4.617-3.743 8.36-8.36 8.36s-8.36-3.743-8.36-8.36 3.743-8.36 8.36-8.36 8.36 3.743 8.36 8.36z" fill="#fff"/><path d="m224.578 322.998c0 4.617-3.743 8.36-8.36 8.36s-8.36-3.743-8.36-8.36 3.743-8.36 8.36-8.36 8.36 3.743 8.36 8.36z" fill="none" stroke="#000" stroke-width="1.088"/><path d="m144.882 452.425h187.985l101.677 29.557h189.167" fill="none" stroke="#000" stroke-width="2"/><path d="m144.882 558.252h187.985l101.677 29.557h189.167" fill="none" stroke="#000" stroke-width="2"/><path d="m604.115 467.414c0 4.617-3.743 8.36-8.36 8.36s-8.36-3.743-8.36-8.36 3.743-8.36 8.36-8.36 8.36 3.743 8.36 8.36z" fill="#de787a"/><path d="m570.675 467.414c0 4.617-3.743 8.36-8.36 8.36s-8.36-3.743-8.36-8.36 3.743-8.36 8.36-8.36 8.36 3.743 8.36 8.36z" fill="#de787a"/><path d="m530.547 467.414c0 4.617-3.743 8.36-8.36 8.36s-8.36-3.743-8.36-8.36 3.743-8.36 8.36-8.36 8.36 3.743 8.36 8.36z" fill="#de787a"/><path d="m493.321 466.704c0 4.617-3.743 8.36-8.36 8.36s-8.36-3.743-8.36-8.36 3.743-8.36 8.36-8.36 8.36 3.743 8.36 8.36z" fill="#de787a"/><path d="m459.893 467.414c0 4.617-3.743 8.36-8.361 8.36-4.617 0-8.36-3.743-8.36-8.36s3.743-8.36 8.36-8.36c4.618 0 8.361 3.743 8.361 8.36z" fill="#de787a"/><path d="m423.108 460.726c0 4.617-3.743 8.36-8.36 8.36s-8.36-3.743-8.36-8.36c0-4.618 3.743-8.36 8.36-8.36s8.36 3.742 8.36 8.36z" fill="#de787a"/><path d="m376.292 444.005c0 4.618-3.743 8.361-8.36 8.361-4.618 0-8.36-3.743-8.36-8.361 0-4.617 3.742-8.36 8.36-8.36 4.617 0 8.36 3.743 8.36 8.36z" fill="#de787a"/><path d="m177.762 573.03c0 4.618-3.743 8.361-8.36 8.361-4.618 0-8.361-3.743-8.361-8.361 0-4.617 3.743-8.36 8.361-8.36 4.617 0 8.36 3.743 8.36 8.36z" fill="#fff"/><path d="m177.762 573.03c0 4.618-3.743 8.361-8.36 8.361-4.618 0-8.361-3.743-8.361-8.361 0-4.617 3.743-8.36 8.361-8.36 4.617 0 8.36 3.743 8.36 8.36z" fill="none" stroke="#000" stroke-width="1.088"/><path d="m210.925 572.158c0 4.618-3.743 8.36-8.36 8.36s-8.36-3.742-8.36-8.36c0-4.617 3.743-8.36 8.36-8.36s8.36 3.743 8.36 8.36z" fill="#fff"/><path d="m210.925 572.158c0 4.618-3.743 8.36-8.36 8.36s-8.36-3.742-8.36-8.36c0-4.617 3.743-8.36 8.36-8.36s8.36 3.743 8.36 8.36z" fill="none" stroke="#000" stroke-width="1.088"/><path d="m243.46 572.158c0 4.618-3.743 8.36-8.36 8.36s-8.36-3.742-8.36-8.36c0-4.617 3.743-8.36 8.36-8.36s8.36 3.743 8.36 8.36z" fill="#fff"/><path d="m243.46 572.158c0 4.618-3.743 8.36-8.36 8.36s-8.36-3.742-8.36-8.36c0-4.617 3.743-8.36 8.36-8.36s8.36 3.743 8.36 8.36z" fill="none" stroke="#000" stroke-width="1.088"/><path d="m273.556 573.03c0 4.618-3.743 8.361-8.36 8.361s-8.36-3.743-8.36-8.361c0-4.617 3.743-8.36 8.36-8.36s8.36 3.743 8.36 8.36z" fill="#fff"/><path d="m273.556 573.03c0 4.618-3.743 8.361-8.36 8.361s-8.36-3.743-8.36-8.361c0-4.617 3.743-8.36 8.36-8.36s8.36 3.743 8.36 8.36z" fill="none" stroke="#000" stroke-width="1.088"/><path d="m310.722 572.158c0 4.618-3.743 8.36-8.36 8.36s-8.36-3.742-8.36-8.36c0-4.617 3.743-8.36 8.36-8.36s8.36 3.743 8.36 8.36z" fill="#fff"/><path d="m310.722 572.158c0 4.618-3.743 8.36-8.36 8.36s-8.36-3.742-8.36-8.36c0-4.617 3.743-8.36 8.36-8.36s8.36 3.743 8.36 8.36z" fill="none" stroke="#000" stroke-width="1.088"/><path d="m340.819 572.158c0 4.618-3.743 8.36-8.36 8.36-4.618 0-8.36-3.742-8.36-8.36 0-4.617 3.742-8.36 8.36-8.36 4.617 0 8.36 3.743 8.36 8.36z" fill="#fff"/><path d="m340.819 572.158c0 4.618-3.743 8.36-8.36 8.36-4.618 0-8.36-3.742-8.36-8.36 0-4.617 3.742-8.36 8.36-8.36 4.617 0 8.36 3.743 8.36 8.36z" fill="none" stroke="#000" stroke-width="1.088"/><path d="m370.915 578.846c0 4.618-3.743 8.361-8.36 8.361s-8.36-3.743-8.36-8.361c0-4.617 3.743-8.36 8.36-8.36s8.36 3.743 8.36 8.36z" fill="#fff"/><path d="m370.915 578.846c0 4.618-3.743 8.361-8.36 8.361s-8.36-3.743-8.36-8.361c0-4.617 3.743-8.36 8.36-8.36s8.36 3.743 8.36 8.36z" fill="none" stroke="#000" stroke-width="1.088"/><path d="m144.882 542.175h187.985l101.677-44.116h189.167" fill="none" stroke="#000" stroke-dasharray="6 6" stroke-width="2"/><path d="m368.93 459.554v87.098" fill="none" stroke="#43699f" stroke-width="4"/><path d="m368.93 546.652-4.8-3.2 4.8 12.8 4.8-12.8z" fill="#43699f" stroke="#43699f" stroke-width="4"/><path d="m411.215 475.564v85.275" fill="none" stroke="#43699f" stroke-width="4"/><path d="m411.215 560.839-4.8-3.2 4.8 12.8 4.8-12.8z" fill="#43699f" stroke="#43699f" stroke-width="4"/><text transform="translate(41.988 307.146)"><tspan fill="#656565" font-family="Avenir-Medium" font-size="36" x="-36" y="9.551">+ ve</tspan></text><text transform="translate(704.381 299.009)"><tspan fill="#656565" font-family="Avenir-Medium" font-size="36" x="-24.696" y="11">-ve</tspan></text><path d="m183.267 367.684 21.121-30.168" fill="none" stroke="#a3a3a3" stroke-width="4"/><path d="m204.388 337.516 2.097 5.375 3.409-13.239-11.273 7.733z" fill="#a3a3a3" stroke="#a3a3a3" stroke-width="4"/><path d="m453.5 646.684-28.322-40.518" fill="none" stroke="#a3a3a3" stroke-width="4"/><path d="m425.178 606.166 5.767-.127-11.267-7.741 3.399 13.241z" fill="#a3a3a3" stroke="#a3a3a3" stroke-width="4"/><path d="m453.5 646.684-75.007-51.49" fill="none" stroke="#a3a3a3" stroke-width="4"/><path d="m378.493 595.194 5.355-2.147-13.269-3.287 7.836 11.202z" fill="#a3a3a3" stroke="#a3a3a3" stroke-width="4"/><path d="m610.874 375.684-55.436-40.795" fill="none" stroke="#a3a3a3" stroke-width="4"/><path d="m555.438 334.889 5.422-1.969-13.154-3.721 7.464 11.453z" fill="#a3a3a3" stroke="#a3a3a3" stroke-width="4"/><text transform="translate(167.523 383.787)"><tspan fill="#656565" font-family="Avenir-Medium" font-size="30" x="-31.965" y="9">Hole</tspan></text><text transform="translate(78.107 511.351)"><tspan fill="#656565" font-family="Avenir-Medium" font-size="30" x="-34.44" y="7.031">Light</tspan></text><text transform="translate(462.677 670.184)"><tspan fill="#656565" font-family="Avenir-Medium" font-size="30" x="-101.715" y="6">Recombination</tspan></text><text transform="translate(725.541 458.501)"><tspan fill="#656565" font-family="Avenir-Medium" font-size="30" x="-117.57" y="7.018">Conduction band</tspan></text><text transform="translate(762.877 501.06)"><tspan fill="#656565" font-family="Avenir-Medium" font-size="30" x="-74.43" y="7.025">Fermi level</tspan></text><text transform="translate(605.787 547.011)"><tspan fill="#656565" font-family="Avenir-Medium" font-size="30" x="-65.025" y="7.025">Band gap</tspan></text><text transform="translate(710.81 617.156)"><tspan fill="#656565" font-family="Avenir-Medium" font-size="30" x="-90.885" y="6.75">Valence band</tspan></text><text transform="translate(612.476 390.684)"><tspan fill="#656565" font-family="Avenir-Medium" font-size="30" x="-56.415" y="6.5">Electron</tspan></text><path d="m558.791 375.944h13.71v2.7h-10.83v6.33h10.08v2.7h-10.08v6.81h11.37v2.7h-14.25zm17.85-1.44h2.7v22.68h-2.7zm9.03 16.56q0 .93.405 1.695.405.765 1.065 1.305.66.54 1.53.84.87.3 1.8.3 1.26 0 2.19-.585.93-.585 1.71-1.545l2.04 1.56q-2.25 2.91-6.3 2.91-1.68 0-3.045-.57-1.365-.57-2.31-1.575-.945-1.005-1.455-2.37-.51-1.365-.51-2.955 0-1.59.555-2.955.555-1.365 1.53-2.37.975-1.005 2.325-1.575 1.35-.57 2.94-.57 1.89 0 3.195.66 1.305.66 2.145 1.725.839 1.065 1.214 2.4.375 1.335.375 2.715v.96zm8.52-2.16q-.03-.9-.285-1.65-.255-.75-.765-1.305-.51-.555-1.275-.87-.765-.315-1.785-.315-.99 0-1.815.375-.825.375-1.395.975-.57.6-.885 1.335-.315.735-.315 1.455zm16.29-2.16q-.75-.78-1.575-1.185-.825-.405-1.965-.405-1.11 0-1.935.405-.825.405-1.38 1.11-.556.705-.84 1.62-.285.915-.285 1.905 0 .99.33 1.875.33.885.929 1.545.601.66 1.441 1.035.84.375 1.89.375 1.14 0 1.95-.405.81-.405 1.5-1.185l1.92 1.92q-1.05 1.17-2.445 1.68-1.395.51-2.955.51-1.65 0-3.015-.54-1.365-.54-2.355-1.515-.99-.975-1.53-2.34-.54-1.365-.54-3.015 0-1.65.54-3.03.54-1.38 1.515-2.37.975-.99 2.34-1.545 1.365-.555 3.045-.555 1.56 0 2.985.555 1.425.555 2.475 1.695zm11.91-1.44h-3.87v6.45q0 .6.03 1.185.03.585.225 1.05.195.465.6.75.405.285 1.185.285.48 0 .99-.09.51-.09.93-.33v2.46q-.48.27-1.245.375-.765.105-1.185.105-1.56 0-2.416-.435-.854-.435-1.259-1.125-.405-.69-.48-1.545-.076-.855-.076-1.725v-7.41h-3.119v-2.34h3.119v-3.99h2.701v3.99h3.87zm3.48-2.34h2.699v2.19h.061q.27-.57.72-1.035.45-.465 1.005-.795.555-.33 1.214-.525.661-.195 1.321-.195.66 0 1.2.18l-.12 2.91q-.33-.09-.66-.15-.33-.06-.66-.06-1.98 0-3.03 1.11-1.051 1.11-1.051 3.45v7.14h-2.699zm12.75 7.11q0 1.08.33 1.995.33.915.93 1.56.6.645 1.47 1.02.87.375 1.95.375 1.08 0 1.95-.375.87-.375 1.47-1.02.599-.645.93-1.56.33-.915.33-1.995 0-1.08-.33-1.995-.331-.915-.93-1.56-.6-.645-1.47-1.02-.87-.375-1.95-.375-1.08 0-1.95.375-.87.375-1.47 1.02-.6.645-.93 1.56-.33.915-.33 1.995zm-2.88 0q0-1.56.585-2.91.585-1.35 1.605-2.37 1.02-1.02 2.4-1.605 1.38-.585 2.97-.585 1.59 0 2.97.585 1.38.585 2.4 1.605 1.02 1.02 1.605 2.37.585 1.35.585 2.91 0 1.56-.585 2.925-.585 1.365-1.605 2.37-1.02 1.005-2.4 1.59-1.38.585-2.97.585-1.59 0-2.97-.585-1.38-.585-2.4-1.59-1.02-1.005-1.605-2.37-.585-1.365-.585-2.925zm18.51-7.11h2.7v2.19h.059q.511-1.14 1.771-1.845 1.26-.705 2.91-.705 1.02 0 1.965.315.945.315 1.65.975.704.66 1.125 1.695.42 1.035.42 2.445v9.15h-2.7v-8.4q0-.99-.27-1.695-.27-.705-.72-1.14-.45-.435-1.035-.63-.585-.195-1.215-.195-.841 0-1.56.27-.72.27-1.26.855-.54.585-.84 1.485-.3.9-.3 2.13v7.32h-2.7z" fill="none" stroke="#656565"/><text transform="translate(241.67 226.861)"><tspan fill="#656565" font-family="Avenir-Medium" font-size="30" x="-44.46" y="4">p-type</tspan></text><text transform="translate(511.631 226.861)"><tspan fill="#656565" font-family="Avenir-Medium" font-size="30" x="-43.635" y="4">n-type</tspan></text><path d="m135.84 509.947c18.137 1.914 43.28 6.335 53.916-.725 11.715-14.519 42.354-15.244 56.772 0 11.715 14.518 42.353 15.244 56.772 0 11.714-14.519 42.353-15.244 56.772 0" fill="none" stroke="#c81919" stroke-width="5"/><path d="m135.84 509.947 3.901-5.187-14.684 4.575 14.071 6.208z" fill="#c81919" stroke="#c81919" stroke-width="5"/><path d="m628.711 498.059h54.894" fill="none" stroke="#000" stroke-dasharray="6 4" stroke-width="2"/></svg>